<svg xmlns="http://www.w3.org/2000/svg" viewBox="0 0 128 128">
  <!-- "ps." — Patrik Simms / p.s. — set in Satoshi Bold on the site's background color -->
  <rect width="128" height="128" rx="32" fill="#0f0d0c"/>
  <rect x="2" y="2" width="124" height="124" rx="30" fill="none" stroke="#ffffff" stroke-opacity="0.09" stroke-width="4"/>
  <g fill="#eceae8" transform="translate(11.86 82) scale(0.0795 -0.0795)">
    <path d="M63.4 -228.9V494H176L183.7 418.9Q206.5 462 252.15 485.4Q297.8 508.8 353.5 508.8Q423.8 508.8 475.6 477.05Q527.4 445.3 556.2 387.95Q585 330.6 585 252.6Q585 176 557.95 115.85Q530.9 55.7 479.45 21.15Q428 -13.4 354.2 -13.4Q298.6 -13.4 253.4 7.9Q208.2 29.2 185 66.2V-228.9ZM186 247Q186 203.1 203.15 168.9Q220.3 134.7 251.7 115.6Q283.1 96.5 325.4 96.5Q368.4 96.5 398.95 115.95Q429.5 135.4 445.95 169.25Q462.4 203.1 462.4 247Q462.4 291.2 445.95 325.05Q429.5 358.9 398.95 378.2Q368.4 397.5 325.4 397.5Q283.1 397.5 251.7 378.55Q220.3 359.6 203.15 325.75Q186 291.9 186 247Z"/>
    <path d="M25.3 149.6H141Q142.4 117.6 165.45 99Q188.5 80.4 229.5 80.4Q273 80.4 295.4 96.45Q317.8 112.5 317.8 139Q317.8 157.2 306.15 170.9Q294.5 184.6 260.8 192.4L172.1 212.7Q105.5 228 72.7 261.35Q39.9 294.7 39.9 354.1Q39.9 402.5 65.3 437.05Q90.7 471.6 134.85 490.2Q179 508.8 235.7 508.8Q291.3 508.8 333.25 489Q375.2 469.2 398.85 433.3Q422.5 397.4 422.8 348.5H307.1Q306.5 380.8 286.55 399.3Q266.6 417.8 230.8 417.8Q195.2 417.8 175.2 402Q155.2 386.2 155.2 359Q155.2 317.7 218.8 302.7L307.9 282.4Q370.2 268.5 401.65 237.15Q433.1 205.8 433.1 148.8Q433.1 99.4 406.9 62.8Q380.7 26.2 334 6.75Q287.3 -12.7 225.9 -12.7Q133.8 -12.7 79.55 32.1Q25.3 76.9 25.3 149.6Z" transform="translate(589 0)"/>
    <path d="M145.3 -12.4Q112.1 -12.4 88.25 10.95Q64.4 34.3 64.4 66.8Q64.4 100.3 88.25 123.65Q112.1 147 145.3 147Q178.1 147 202.15 123.65Q226.2 100.3 226.2 66.8Q226.2 34.3 202.15 10.95Q178.1 -12.4 145.3 -12.4Z" transform="translate(1022 0)" fill="#a39a94"/>
  </g>
</svg>
